# xmcd
#
# Track frame offsets:
# 150
# 16264
# 34409
# 46712
# 60772
# 74870
# 89912
# 103338
# 119198
# 133341
# 147195
# 163903
# 175395
# 191545
#
# Disc length: 2732 seconds
#
#
# Revision: 0
# Processed by: cddbd v1.5.1PL0 Copyright (c) Steve Scherf et al.
# Submitted via: FreeRIP 2.52 
#
DISCID=dc0aaa0e
DTITLE=Charlie McCoy - Classic Country
DYEAR=1900
DGENRE=Instrumental
TTITLE0=On the Road Again
TTITLE1=Crazy
TTITLE2=I Started Loving You Again
TTITLE3=Orange Blossom Special
TTITLE4=Don't It Make My Brown Eyes Blue
TTITLE5=Tennessee Waltz
TTITLE6=Walkin' After Midnight
TTITLE7=You Needed Me
TTITLE8=John Henry
TTITLE9=Here Comes My BabyBack Again
TTITLE10=Lookin' For Love
TTITLE11=I'm So Lonesome I Could Cry
TTITLE12=San Antonio Rose
TTITLE13=Shenandoah
EXTD=
EXTT0=
EXTT1=
EXTT2=
EXTT3=
EXTT4=
EXTT5=
EXTT6=
EXTT7=
EXTT8=
EXTT9=
EXTT10=
EXTT11=
EXTT12=
EXTT13=
PLAYORDER=
